<svg id="Layer_1" data-name="Layer 1" xmlns="http://www.w3.org/2000/svg" viewBox="0 0 512 330.01">
    <defs>
        <style>.cls-1{fill:#fff;}</style>
    </defs>
    <title>patigator logo</title>
    <path class="cls-1" d="M467,151a46.46,46.46,0,0,0-30,11.4A46.46,46.46,0,0,0,407,151a44.86,44.86,0,0,0-42.3,30H300.5a76.64,76.64,0,0,0-.6-33,74.48,74.48,0,0,0-54-54.6C215.6,85.92,185,97,167,121H135a74,74,0,0,0-66.6-29.7C30,94.62,0,128.82,0,169.62V346a75,75,0,0,0,75,75H437a75,75,0,0,0,73.5-60H257c-4.73,0-10.08-2.7-13.5-8.4l-30-60c-.1-.21-.11-.21,0,0-2.1-4.5-2.1-10.2.6-14.4A15.61,15.61,0,0,1,227,271H512v-75.3A44.88,44.88,0,0,0,467,151ZM75,181a15,15,0,1,1,15-15A14.85,14.85,0,0,1,75,181Zm152,0a15,15,0,1,1,15-15A14.85,14.85,0,0,1,227,181Z" 
    transform="translate(0 -91)"/>
</svg>