<?xml version="1.0" standalone="no"?><!DOCTYPE svg PUBLIC "-//W3C//DTD SVG 1.1//EN" "http://www.w3.org/Graphics/SVG/1.1/DTD/svg11.dtd"><svg t="1585609585546" class="icon" viewBox="0 0 1024 1024" version="1.1" xmlns="http://www.w3.org/2000/svg" p-id="4929" width="32" height="32" xmlns:xlink="http://www.w3.org/1999/xlink"><defs><style type="text/css"></style></defs><path d="M512 128c211.2 0 384 172.8 384 384s-172.8 384-384 384S128 723.2 128 512 300.8 128 512 128m0-64C265.6 64 64 265.6 64 512s201.6 448 448 448 448-201.6 448-448S758.4 64 512 64z" p-id="4930" fill="#1296db"></path><path d="M384 704c-19.2 0-32-12.8-32-32V352c0-19.2 12.8-32 32-32s32 12.8 32 32v320c0 19.2-12.8 32-32 32zM640 704c-19.2 0-32-12.8-32-32V352c0-19.2 12.8-32 32-32s32 12.8 32 32v320c0 19.2-12.8 32-32 32z" p-id="4931" fill="#1296db"></path></svg>